<?xml version="1.0" standalone="no"?><!DOCTYPE svg PUBLIC "-//W3C//DTD SVG 1.1//EN" "http://www.w3.org/Graphics/SVG/1.1/DTD/svg11.dtd"><svg class="icon" width="200px" height="193.76px" viewBox="0 0 1057 1024" version="1.1" xmlns="http://www.w3.org/2000/svg"><path d="M528.509821 0C236.508145 0 0 234.922615 0 524.94238c0 232.280066 151.285936 428.489337 361.36859 498.054442 26.425491 4.591429 36.33505-11.16477 36.33505-24.939057 0-12.486045-0.660637-53.841938-0.660637-97.774317-132.788093 24.27842-167.141231-32.140003-177.711427-61.67049-5.945735-15.095562-31.710589-61.703522-54.172257-74.156534-18.497844-9.843495-44.923335-34.121915-0.660637-34.782552 41.620148-0.660637 71.348826 38.052707 81.258385 53.808906 47.565884 79.408601 123.539171 57.079061 153.928485 43.304773 4.624461-34.121915 18.497844-57.079061 33.692501-70.225742-117.593435-13.11365-240.471969-58.400335-240.471968-259.168004 0-57.112093 20.479756-104.347658 54.172256-141.07909-5.285098-13.146682-23.782942-66.955588 5.285099-139.13021 0 0 44.262698-13.774287 145.3402 53.841938 42.280786-11.825407 87.20412-17.738111 132.127456-17.738111 44.923335 0 89.84667 5.912704 132.127455 17.705079 101.077503-68.243831 145.340201-53.808906 145.340201-53.808906 29.06804 72.207654 10.570196 125.983529 5.285098 139.13021 33.692501 36.731433 54.172257 83.339392 54.172256 141.046058 0 201.494369-123.539171 246.087385-241.132605 259.201036 19.158481 16.416836 35.674413 47.896203 35.674413 97.113679 0 70.225742-0.660637 126.644166-0.660638 144.349245 0 13.807319 9.909559 30.224155 36.33505 24.972089a529.104395 529.104395 0 0 0 260.68747-191.518746A523.422914 523.422914 0 0 0 1057.019642 524.94238C1057.019642 234.922615 820.511497 0 528.509821 0z" fill="#ffffff" /></svg>